<svg xmlns="http://www.w3.org/2000/svg" width="16" height="11" viewBox="0 0 16 11">
    <g fill="none" fill-rule="nonzero" stroke-width=".5">
        <path class="svgfill2 svgstroke2" d="M14.994 8.63l-1.633 1.604a.636.636 0 0 1-.409.172.534.534 0 0 1-.408-.172.547.547 0 0 1 0-.802l.642-.63h-1.342a5.608 5.608 0 0 1-3.967-1.605L4.961 4.333c-.817-.802-1.984-1.26-3.15-1.26-.35 0-.584-.23-.584-.574 0-.343.234-.573.584-.573 1.458 0 2.916.573 3.966 1.605l2.917 2.864c.875.802 1.983 1.26 3.15 1.26h1.342l-.642-.63a.547.547 0 0 1 0-.802.571.571 0 0 1 .817 0l1.633 1.605c.233.171.233.572 0 .802z"/>
        <g class="svgicon1 svgstroke1">
            <path d="M13.36 4.447a.636.636 0 0 1-.408.172.534.534 0 0 1-.408-.172.547.547 0 0 1 0-.802l.642-.63h-1.342c-1.167 0-2.333.458-3.15 1.26a.636.636 0 0 1-.408.172.534.534 0 0 1-.409-.172.547.547 0 0 1 0-.802 5.608 5.608 0 0 1 3.967-1.604h1.342l-.642-.63a.547.547 0 0 1 0-.802.571.571 0 0 1 .817 0l1.633 1.604c.233.172.233.573 0 .802l-1.633 1.604zM1.752 8.744c-.35 0-.583-.23-.583-.573 0-.344.233-.573.583-.573 1.167 0 2.334-.458 3.15-1.26a.571.571 0 0 1 .817 0 .547.547 0 0 1 0 .802C4.669 8.17 3.211 8.744 1.752 8.744z"/>
        </g>
    </g>
</svg>
