<svg xmlns="http://www.w3.org/2000/svg" width="15" height="17" viewBox="0 0 15 17">
    <g fill="none" fill-rule="nonzero">
        <path class="svgfill1" d="M14.657 2.743L12.95 4.45a1.03 1.03 0 0 1-1.474 0 1.03 1.03 0 0 1 0-1.475l1.707-1.707a3.244 3.244 0 0 0-3.724.621 3.244 3.244 0 0 0-.62 3.724L2.372 12.08c-.62-.13-1.32.026-1.81.517-.75.75-.75 1.991 0 2.741s1.99.75 2.74 0a1.903 1.903 0 0 0 .518-1.81l6.466-6.465a3.244 3.244 0 0 0 3.724-.621c1.008-1.009 1.241-2.483.646-3.698zM2.631 14.613c-.362.362-.93.362-1.267 0-.362-.362-.362-.93 0-1.267.362-.336.931-.362 1.267 0 .337.362.363.905 0 1.267z"/>
        <path class="svgfill1" d="M14.017 13.543l-9.026-9 .207-.207-.543-1.603L1.215 1 0 2.216l1.836 3.543 1.5.44.207-.208 9 9.026z"/>
        <path class="svgfill2" d="M14.429 15.722a1.577 1.577 0 0 1-2.198 0l-3.285-3.31a1.577 1.577 0 0 1 0-2.198 1.577 1.577 0 0 1 2.198 0l3.285 3.31c.595.595.595 1.578 0 2.198z"/>
    </g>
</svg>
