<svg xmlns="http://www.w3.org/2000/svg" width="15" height="16" viewBox="0 0 15 16">
    <g fill="none" fill-rule="evenodd">
        <path class="svgfill1" d="M12.894 3.23c-.009-.46-.449-.875-.913-.859a.893.893 0 0 0-.852.912c.021.46.417.833.883.831.478-.002.891-.416.882-.884m-.396 4.028a30.683 30.683 0 0 1-1.964 1.892c-.257.231-.343.465-.348.793-.014.904-.07 1.806-.094 2.71-.007.295-.137.465-.392.612-1.016.585-2.022 1.188-3.029 1.79-.219.131-.442.293-.659.041-.25-.291-.745-.444-.562-.997.22-.668.416-1.344.586-2.025.038-.151-.02-.393-.127-.502a62.13 62.13 0 0 0-2.167-2.084c-.113-.104-.36-.154-.512-.113-.684.187-1.364.399-2.033.634-.555.195-.722-.29-1.024-.53-.262-.208-.102-.432.024-.651.59-1.024 1.162-2.057 1.77-3.07.1-.165.338-.328.527-.347.925-.093 1.855-.15 2.784-.19.332-.014.569-.1.792-.365.96-1.147 1.978-2.239 3.22-3.104C10.864.656 12.647.318 14.526.309c.275-.001.393.136.388.399-.003.138.003.276.005.414-.014 2.35-.809 4.407-2.42 6.136z"/>
        <path class="svgfill2" d="M9 7.247c-.014.903 1.084 4.527 1.06 5.43-.008.296-.137.467-.392.613-1.016.586-2.022 1.189-3.03 1.79-.218.131-.441.293-.658.041-.25-.291-.745-.443-.563-.997.22-.667.417-1.344.587-2.025.038-.15-.02-.393-.127-.502A62.13 62.13 0 0 0 3.71 9.513c-.113-.104-.36-.154-.512-.112-.685.186-1.364.398-2.033.633-.556.195-.722-.29-1.024-.53-.262-.208-.102-.432.024-.651.59-1.024 1.162-2.057 1.77-3.07.099-.165.338-.328.527-.347.925-.093 4.609.85 5.538.81.332-.014 1.005.672 1 1z"/>
        <path class="svgfill1" d="M2.06 13.227c.586.585 2.645-.524 4.6-2.478.839-.839 1.522-1.698 1.982-2.45.611-1 .829-1.814.495-2.148-.343-.343-1.191-.105-2.227.543-.734.46-1.562 1.124-2.372 1.934-1.954 1.954-3.063 4.013-2.477 4.599z"/>
    </g>
</svg>
