<svg xmlns="http://www.w3.org/2000/svg" width="17" height="20" viewBox="0 0 17 20">
    <g fill="none" fill-rule="evenodd">
        <path class="svgfill2" d="M16.229 10.653a2.998 2.998 0 0 1-.794 2.832l-4.95 4.95a3 3 0 0 1-4.242 0l-4.95-4.95a2.998 2.998 0 0 1-.794-2.832c.126.517.39 1.007.794 1.41l4.95 4.95a3 3 0 0 0 4.242 0l4.95-4.95c.404-.403.668-.893.794-1.41z"/>
        <path class="svgfill1" d="M10.485 1.293l4.95 4.95a3 3 0 0 1 0 4.242l-4.95 4.95a3 3 0 0 1-4.242 0l-4.95-4.95a3 3 0 0 1 0-4.242l4.95-4.95a3 3 0 0 1 4.242 0zm-7.262 9.462c.357.21.784.329 1.316.329 1.057 0 1.673-.602 1.673-1.491 0-.945-.798-1.239-1.4-1.456-.4-.147-.665-.273-.665-.525 0-.21.154-.371.504-.371.21 0 .44.056.693.175a.511.511 0 0 0 .21.042.5.5 0 0 0 .504-.497.512.512 0 0 0-.28-.448 2.501 2.501 0 0 0-1.113-.259c-1.092 0-1.673.672-1.673 1.421 0 .987.805 1.246 1.407 1.463.392.147.665.28.665.56 0 .231-.203.406-.54.406-.293 0-.56-.091-.797-.231a.499.499 0 0 0-.252-.063.502.502 0 0 0-.504.504c0 .189.105.35.252.441zm3.89.245h1.036c1.337 0 2.107-.945 2.107-2.331 0-1.386-.777-2.338-2.107-2.338H7.113c-.385 0-.602.21-.602.602v3.465c0 .392.217.602.602.602zm.532-.987V7.318h.504c.623 0 .952.49.952 1.351 0 .812-.35 1.344-.952 1.344h-.504zm6.305.189l-1.183-1.687 1.064-1.407a.485.485 0 0 0 .098-.301.538.538 0 0 0-.539-.532.533.533 0 0 0-.44.245l-1.233 1.785V6.842a.57.57 0 0 0-.567-.567.57.57 0 0 0-.567.567v3.647a.57.57 0 0 0 .567.567.57.57 0 0 0 .567-.567v-.7l.315-.49 1.001 1.491a.527.527 0 0 0 .462.266.554.554 0 0 0 .553-.553.5.5 0 0 0-.098-.301z"/>
    </g>
</svg>
