<svg xmlns="http://www.w3.org/2000/svg" width="15" height="16" viewBox="0 0 15 16">
    <g fill="none" fill-rule="nonzero">
        <path class="svgfill1" d="M7.5.536C3.358.536 0 1.586 0 2.88v1.875C0 6.05 3.358 7.099 7.5 7.099c4.142 0 7.5-1.05 7.5-2.344V2.88C15 1.585 11.642.536 7.5.536z"/>
        <path class="svgfill2" d="M7.5 8.505C3.358 8.505 0 7.455 0 6.16v2.813c0 1.294 3.358 2.343 7.5 2.343 4.142 0 7.5-1.049 7.5-2.343V6.16c0 1.295-3.358 2.344-7.5 2.344z"/>
        <path class="svgfill1" d="M7.5 12.724c-4.142 0-7.5-1.05-7.5-2.344v2.812c0 1.295 3.358 2.344 7.5 2.344 4.142 0 7.5-1.049 7.5-2.344V10.38c0 1.295-3.358 2.344-7.5 2.344z"/>
    </g>
</svg>
