<svg xmlns="http://www.w3.org/2000/svg" width="15" height="16" viewBox="0 0 15 16">
    <g fill="none" fill-rule="nonzero">
        <path class="svgfill1" d="M15 4.713L13.586 3.3l-2.793 2.793-1.586-1.586L12 1.713 10.586.3 7.793 3.092 6 1.3 4.646 2.652l8 8L14 9.3l-1.793-1.793z"/>
        <path class="svgfill2" d="M11.407 10.827L4.472 3.892C2.975 5.687 1.276 8.462 2.45 10.85L.384 12.915a1.254 1.254 0 0 0 0 1.768l.232.232a1.254 1.254 0 0 0 1.768 0L4.45 12.85c2.387 1.174 5.161-.524 6.957-2.022z"/>
    </g>
</svg>
