<svg xmlns="http://www.w3.org/2000/svg" width="15" height="13" viewBox="0 0 15 13">
    <path class="svgfill1" fill-rule="evenodd" d="M7.5 12.004H1.618c-.657-.001-1.179-.257-1.459-.87-.1-.22-.15-.483-.151-.727-.01-2.939-.01-5.877-.005-8.816C.004.804.415.257 1.14.058a1.79 1.79 0 0 1 .467-.056C5.534 0 9.462 0 13.39.001c.8 0 1.37.425 1.561 1.171.039.15.045.313.045.47.003 2.909.001 5.818.003 8.727 0 .658-.243 1.183-.855 1.466-.235.11-.516.16-.777.162-1.955.013-3.91.007-5.866.007zm3.343-3.023h1.143V3.76h-1.143V8.98zm-7 .006c.032-.157.065-.3.089-.443.016-.096.054-.14.16-.136.216.008.433.008.65 0 .11-.003.156.034.166.146.01.11.033.22.066.326.014.044.066.107.102.108.355.008.711.005 1.083.005L4.991 3.76H3.848L2.68 8.987h1.163zm2.925-5.203V8.98H7.92v-.868-.877c.228 0 .427.002.625 0 .896-.016 1.622-.715 1.69-1.625.063-.869-.59-1.733-1.458-1.815-.66-.062-1.33-.012-2.01-.012zM4.674 7.235h-.5l.23-1.057.04-.001.23 1.058zm3.254-1.122V4.909c.244.012.484.002.717.04.27.045.442.283.445.554.003.278-.171.523-.449.57-.227.037-.463.028-.713.04z"/>
</svg>
