<svg xmlns="http://www.w3.org/2000/svg" width="15" height="18" viewBox="0 0 15 18">
    <g fill="none" fill-rule="evenodd">
        <path class="svgfill1" fill-rule="nonzero" d="M13.929 2.143H15v15H2.143A2.15 2.15 0 0 1 0 15V2.143A2.15 2.15 0 0 1 2.143 0h10.714v12.857H2.68a1.607 1.607 0 1 0 0 3.214h11.25V2.143zm-6.672 6.85v-.527C7.96 8.07 8.535 7.08 8.535 6.091c0-1.589 0-2.877-1.918-2.877C4.7 3.214 4.7 4.502 4.7 6.091c0 .99.574 1.978 1.278 2.375v.528c-2.168.177-3.835 1.242-3.835 2.53h8.949c0-1.288-1.667-2.353-3.835-2.53zM2.68 13.93h10.176V15H2.68h-.001a.536.536 0 0 1 0-1.071z"/>
    </g>
</svg>
